<svg width="17" height="19" viewBox="0 0 17 19" fill="none" xmlns="http://www.w3.org/2000/svg">
<path d="M11.9 15.96H12.58L12.172 15.352C11.9 14.934 11.73 14.402 11.628 13.756C13.328 12.882 14.28 11.248 14.28 9.12005C14.28 5.85205 12.07 3.80005 8.49997 3.80005C4.92997 3.80005 2.71997 5.85205 2.71997 9.12005C2.71997 12.464 4.89597 14.44 8.49997 14.44H8.73797C9.28197 15.162 10.234 15.96 11.9 15.96ZM8.49997 4.56005C11.696 4.56005 13.6 6.27005 13.6 9.12005C13.6 11.552 12.274 12.692 11.152 13.186L10.914 13.3L10.948 13.604C11.016 14.212 11.118 14.744 11.322 15.2C10.2 15.048 9.55397 14.402 9.17997 13.87L9.07797 13.718H8.49997C3.90997 13.718 3.39997 10.526 3.39997 9.15805C3.39997 6.27005 5.30397 4.56005 8.49997 4.56005Z" fill="#F8F8F8"/>
</svg>
