<svg width="35" height="39" viewBox="0 0 35 39" fill="none" xmlns="http://www.w3.org/2000/svg">
<path d="M31.1115 0H3.73338C1.67224 0 0 1.82773 0 4.08051V34.0042C0 36.257 1.67224 38.0847 3.73338 38.0847H31.1115C33.1726 38.0847 34.8448 36.257 34.8448 34.0042V4.08051C34.8448 1.82773 33.1726 0 31.1115 0ZM27.3081 13.4997C27.3237 13.7377 27.3237 13.9842 27.3237 14.2223C27.3237 21.5927 22.1903 30.0852 12.8101 30.0852C9.91678 30.0852 7.23342 29.1671 4.97784 27.5859C5.39006 27.6369 5.78673 27.6539 6.20674 27.6539C8.59454 27.6539 10.7879 26.7698 12.5379 25.2736C10.2979 25.2226 8.41565 23.6159 7.77009 21.4056C8.55566 21.5332 9.26344 21.5332 10.0723 21.3036C7.73898 20.7851 5.98896 18.5408 5.98896 15.829V15.761C6.66563 16.1775 7.45898 16.4325 8.29121 16.4665C7.59153 15.9579 7.01796 15.2678 6.62167 14.4579C6.22537 13.648 6.01869 12.7434 6.02007 11.825C6.02007 10.7878 6.26896 9.83572 6.7123 9.01112C9.22455 12.3945 12.9968 14.6048 17.228 14.8428C16.5046 11.0599 19.0947 7.99099 22.2058 7.99099C23.6758 7.99099 24.9981 8.66257 25.9314 9.75071C27.0825 9.51268 28.187 9.04512 29.167 8.40754C28.7859 9.6997 27.9848 10.7878 26.927 11.4764C27.9537 11.3574 28.9492 11.0429 29.867 10.6093C29.1748 11.723 28.3037 12.7091 27.3081 13.4997Z" fill="#F8F8F8"/>
</svg>
