<svg width="42" height="42" viewBox="0 0 42 42" fill="none" xmlns="http://www.w3.org/2000/svg">
<path d="M35 35H7C6.07174 35 5.1815 34.6313 4.52513 33.9749C3.86875 33.3185 3.5 32.4283 3.5 31.5V10.3478C3.53926 9.44613 3.92527 8.59453 4.57744 7.97073C5.22961 7.34692 6.09753 6.99915 7 7H35C35.9283 7 36.8185 7.36875 37.4749 8.02513C38.1313 8.6815 38.5 9.57174 38.5 10.5V31.5C38.5 32.4283 38.1313 33.3185 37.4749 33.9749C36.8185 34.6313 35.9283 35 35 35ZM7 13.769V31.5H35V13.769L21 23.1L7 13.769ZM8.4 10.5L21 18.9L33.6 10.5H8.4Z" fill="#F8F8F8"/>
</svg>
