<svg width="36" height="36" viewBox="0 0 36 36" fill="none" xmlns="http://www.w3.org/2000/svg">
<path d="M6.49783 0C2.89832 0 0 2.89832 0 6.49783V29.0884C0 32.6879 2.89832 35.5862 6.49783 35.5862H18.7417V21.6742H15.063V16.6655H18.7417V12.3862C18.7417 9.02423 20.9153 5.93735 25.9223 5.93735C27.9496 5.93735 29.4487 6.13197 29.4487 6.13197L29.3308 10.8093C29.3308 10.8093 27.8019 10.7949 26.1336 10.7949C24.328 10.7949 24.0385 11.6268 24.0385 13.0079V16.6655H29.4743L29.2374 21.6743H24.0385V35.5863H29.0884C32.6879 35.5863 35.5862 32.688 35.5862 29.0885V6.49786C35.5862 2.89835 32.6879 3.55862e-05 29.0884 3.55862e-05H6.49779L6.49783 0Z" fill="#F8F8F8"/>
</svg>
