<svg width="39" height="39" viewBox="0 0 39 39" fill="none" xmlns="http://www.w3.org/2000/svg">
<path d="M29.25 15.8438H26.8125C26.8115 14.8743 26.426 13.9449 25.7405 13.2595C25.0551 12.574 24.1257 12.1885 23.1562 12.1875V9.75C24.7718 9.75194 26.3207 10.3946 27.463 11.537C28.6054 12.6793 29.2481 14.2282 29.25 15.8438Z" fill="#F8F8F8"/>
<path d="M34.125 15.8438H31.6875C31.6849 13.5819 30.7853 11.4135 29.1859 9.8141C27.5865 8.21474 25.4181 7.31508 23.1562 7.3125V4.875C26.0644 4.87823 28.8524 6.03489 30.9088 8.09124C32.9651 10.1476 34.1218 12.9356 34.125 15.8438Z" fill="#F8F8F8"/>
<path d="M31.6875 35.3438H31.4803C7.53189 33.9666 4.13158 13.7597 3.65626 7.59281C3.58198 6.62604 3.89475 5.66934 4.52579 4.93316C5.15684 4.19699 6.05446 3.74162 7.02123 3.66722C7.11792 3.65991 7.21501 3.65625 7.31251 3.65625H13.7353C14.2235 3.65578 14.7006 3.8019 15.1048 4.0757C15.5089 4.34949 15.8216 4.73834 16.0022 5.19188L17.8547 9.75C18.0331 10.1931 18.0773 10.6788 17.982 11.1468C17.8867 11.6148 17.6559 12.0445 17.3184 12.3825L14.7225 15.0028C15.1264 17.3079 16.2294 19.433 17.8819 21.0899C19.5345 22.7468 21.6567 23.8554 23.9606 24.2653L26.6053 21.645C26.9484 21.3113 27.3821 21.0859 27.8524 20.997C28.3228 20.9082 28.8088 20.9597 29.25 21.1453L33.8447 22.9856C34.2914 23.172 34.6725 23.487 34.9395 23.8908C35.2064 24.2945 35.3472 24.7685 35.3438 25.2525V31.6875C35.3438 32.6572 34.9585 33.5872 34.2729 34.2729C33.5872 34.9585 32.6572 35.3438 31.6875 35.3438ZM7.31251 6.09375C7.15246 6.09327 6.99389 6.12432 6.84584 6.18512C6.69779 6.24593 6.56316 6.3353 6.44965 6.44813C6.33614 6.56096 6.24597 6.69504 6.18428 6.84273C6.12258 6.99041 6.09059 7.1488 6.09011 7.30885C6.09011 7.34297 6.09133 7.37669 6.09376 7.41C6.65439 14.625 10.2497 31.6875 31.6144 32.9062C31.937 32.9256 32.254 32.816 32.4958 32.6016C32.7376 32.3873 32.8844 32.0856 32.9038 31.7631L32.9063 31.6875V25.2525L28.3116 23.4122L24.8138 26.8856L24.2288 26.8125C13.6256 25.4841 12.1875 14.8809 12.1875 14.7713L12.1144 14.1863L15.5756 10.6884L13.7475 6.09375H7.31251Z" fill="#F8F8F8"/>
</svg>
