<svg width="37" height="27" viewBox="0 0 37 27" fill="none" xmlns="http://www.w3.org/2000/svg">
<path d="M18.5 17.6309C18.5 16.8809 18.4458 16.1924 18.3374 15.5654C18.229 14.9385 18.0514 14.335 17.8044 13.7549C17.5575 13.1748 17.1932 12.7178 16.7114 12.3838C16.2297 12.0498 15.6455 11.8828 14.959 11.8828C14.8867 11.9297 14.7061 12.0352 14.417 12.1992C14.1279 12.3633 13.9021 12.4893 13.7395 12.5771C13.5769 12.665 13.3631 12.7676 13.0981 12.8848C12.8332 13.002 12.5742 13.0869 12.3213 13.1396C12.0684 13.1924 11.8154 13.2188 11.5625 13.2188C11.3096 13.2188 11.0566 13.1924 10.8037 13.1396C10.5508 13.0869 10.2918 13.002 10.0269 12.8848C9.76188 12.7676 9.5481 12.665 9.3855 12.5771C9.2229 12.4893 8.99707 12.3633 8.70801 12.1992C8.41895 12.0352 8.23828 11.9297 8.16602 11.8828C7.47949 11.8828 6.89535 12.0498 6.41357 12.3838C5.9318 12.7178 5.56746 13.1748 5.32056 13.7549C5.07365 14.335 4.896 14.9385 4.7876 15.5654C4.6792 16.1924 4.625 16.8809 4.625 17.6309C4.625 18.3809 4.84782 19.0049 5.29346 19.5029C5.7391 20.001 6.28711 20.25 6.9375 20.25H16.1875C16.8379 20.25 17.3859 20.001 17.8315 19.5029C18.2772 19.0049 18.5 18.3809 18.5 17.6309ZM15.6636 8.49023C15.6636 7.38867 15.2631 6.44824 14.4622 5.66895C13.6612 4.88965 12.6947 4.5 11.5625 4.5C10.4303 4.5 9.46379 4.88965 8.66284 5.66895C7.8619 6.44824 7.46143 7.38867 7.46143 8.49023C7.46143 9.5918 7.8619 10.5322 8.66284 11.3115C9.46379 12.0908 10.4303 12.4805 11.5625 12.4805C12.6947 12.4805 13.6612 12.0908 14.4622 11.3115C15.2631 10.5322 15.6636 9.5918 15.6636 8.49023ZM32.375 17.4375V16.3125C32.375 16.1484 32.3208 16.0137 32.2124 15.9082C32.104 15.8027 31.9655 15.75 31.7969 15.75H21.3906C21.222 15.75 21.0835 15.8027 20.9751 15.9082C20.8667 16.0137 20.8125 16.1484 20.8125 16.3125V17.4375C20.8125 17.6016 20.8667 17.7363 20.9751 17.8418C21.0835 17.9473 21.222 18 21.3906 18H31.7969C31.9655 18 32.104 17.9473 32.2124 17.8418C32.3208 17.7363 32.375 17.6016 32.375 17.4375ZM32.375 12.8672V11.8828C32.375 11.707 32.3118 11.5576 32.1853 11.4346C32.0588 11.3115 31.9053 11.25 31.7246 11.25H21.4629C21.2822 11.25 21.1287 11.3115 21.0022 11.4346C20.8757 11.5576 20.8125 11.707 20.8125 11.8828V12.8672C20.8125 13.043 20.8757 13.1924 21.0022 13.3154C21.1287 13.4385 21.2822 13.5 21.4629 13.5H31.7246C31.9053 13.5 32.0588 13.4385 32.1853 13.3154C32.3118 13.1924 32.375 13.043 32.375 12.8672ZM32.375 8.4375V7.3125C32.375 7.14844 32.3208 7.01367 32.2124 6.9082C32.104 6.80273 31.9655 6.75 31.7969 6.75H21.3906C21.222 6.75 21.0835 6.80273 20.9751 6.9082C20.8667 7.01367 20.8125 7.14844 20.8125 7.3125V8.4375C20.8125 8.60156 20.8667 8.73633 20.9751 8.8418C21.0835 8.94727 21.222 9 21.3906 9H31.7969C31.9655 9 32.104 8.94727 32.2124 8.8418C32.3208 8.73633 32.375 8.60156 32.375 8.4375ZM37 2.8125V24.1875C37 24.9609 36.717 25.623 36.1509 26.1738C35.5848 26.7246 34.9043 27 34.1094 27H27.75V25.3125C27.75 25.1484 27.6958 25.0137 27.5874 24.9082C27.479 24.8027 27.3405 24.75 27.1719 24.75H26.0156C25.847 24.75 25.7085 24.8027 25.6001 24.9082C25.4917 25.0137 25.4375 25.1484 25.4375 25.3125V27H11.5625V25.3125C11.5625 25.1484 11.5083 25.0137 11.3999 24.9082C11.2915 24.8027 11.153 24.75 10.9844 24.75H9.82812C9.6595 24.75 9.521 24.8027 9.4126 24.9082C9.3042 25.0137 9.25 25.1484 9.25 25.3125V27H2.89062C2.0957 27 1.4152 26.7246 0.849121 26.1738C0.28304 25.623 0 24.9609 0 24.1875V2.8125C0 2.03906 0.28304 1.37695 0.849121 0.826172C1.4152 0.275391 2.0957 0 2.89062 0H34.1094C34.9043 0 35.5848 0.275391 36.1509 0.826172C36.717 1.37695 37 2.03906 37 2.8125Z" fill="#F8F8F8"/>
</svg>
